# xmcd
#
# Track frame offsets: 
#        150
#        22650
#        50400
#        83400
#        106250
#        146000
#        172700
#        197600
#
# Disc length: 2884 seconds
#
# Revision: 0
# Processed by: cddbd v1.5.2PL0 Copyright (c) Steve Scherf et al.
# Submitted via: ExactAudioCopy v0.99pb5
#
DISCID=510b4208
DTITLE=Jeff Prine Featuring Carrie Van  - Jeff Prine Featuring Carrie 
DTITLE=Van - Live at Evangeline
DYEAR=2001
DGENRE=Blues
TTITLE0=Tore Down
TTITLE1=I'd Rather Go Blind
TTITLE2=Blues All Day Long
TTITLE3=That's Enough Of That Stuff
TTITLE4=Down Home Blues
TTITLE5=Watermelon Man
TTITLE6=Natural Woman
TTITLE7=Little Nicky
EXTD=
EXTT0=
EXTT1=
EXTT2=
EXTT3=
EXTT4=
EXTT5=
EXTT6=
EXTT7=
PLAYORDER=
